<svg width="19" height="18" viewBox="0 0 19 18" fill="none" xmlns="http://www.w3.org/2000/svg">
<path d="M3.81195 8.53493V1.41135" stroke="#758095" stroke-width="2" stroke-linecap="round" stroke-linejoin="round"/>
<path d="M3.81195 16.6762V14.6409" stroke="#758095" stroke-width="2" stroke-linecap="round" stroke-linejoin="round"/>
<path d="M9.40906 2.93783V1.41135" stroke="#758095" stroke-width="2" stroke-linecap="round" stroke-linejoin="round"/>
<path d="M9.40906 16.6762V9.04379" stroke="#758095" stroke-width="2" stroke-linecap="round" stroke-linejoin="round"/>
<path fill-rule="evenodd" clip-rule="evenodd" d="M3.81204 14.6409C4.93611 14.6409 5.84735 13.7296 5.84735 12.6055C5.84735 11.4815 4.93611 10.5702 3.81204 10.5702C2.68797 10.5702 1.77673 11.4815 1.77673 12.6055C1.77673 13.7296 2.68797 14.6409 3.81204 14.6409Z" stroke="#758095" stroke-width="2" stroke-linecap="round" stroke-linejoin="round"/>
<path d="M15.0062 8.53493V1.41135" stroke="#758095" stroke-width="2" stroke-linecap="round" stroke-linejoin="round"/>
<path d="M15.0062 16.6762V14.6409" stroke="#758095" stroke-width="2" stroke-linecap="round" stroke-linejoin="round"/>
<path fill-rule="evenodd" clip-rule="evenodd" d="M15.0063 14.6409C16.1304 14.6409 17.0416 13.7296 17.0416 12.6055C17.0416 11.4815 16.1304 10.5702 15.0063 10.5702C13.8822 10.5702 12.971 11.4815 12.971 12.6055C12.971 13.7296 13.8822 14.6409 15.0063 14.6409Z" stroke="#758095" stroke-width="2" stroke-linecap="round" stroke-linejoin="round"/>
<path fill-rule="evenodd" clip-rule="evenodd" d="M9.40909 9.04381C10.5332 9.04381 11.4444 8.13257 11.4444 7.0085C11.4444 5.88443 10.5332 4.97319 9.40909 4.97319C8.28502 4.97319 7.37378 5.88443 7.37378 7.0085C7.37378 8.13257 8.28502 9.04381 9.40909 9.04381Z" stroke="#758095" stroke-width="2" stroke-linecap="round" stroke-linejoin="round"/>
</svg>
